<svg width="129" height="115" viewBox="0 0 129 115" fill="none" xmlns="http://www.w3.org/2000/svg">
<path d="M41.5291 58.4416C41.5291 46.4698 43.9586 35.8106 48.8178 26.4641C54.5041 15.4374 63.0335 7.77121 74.4061 3.46554C80.7127 1.15518 87.2777 0 94.1012 0C100.925 0 107.49 0.525086 113.796 1.57525C120.103 2.62541 124.238 3.57056 126.203 4.41069C126.823 8.2963 127.133 12.3919 127.133 16.6976C127.133 20.8983 127.03 25.624 126.823 30.8748L117.984 32.135C115.709 19.9531 113.693 13.2321 111.935 11.9719C111.005 11.2368 108.575 10.4491 104.647 9.609C100.821 8.76887 96.9961 8.3488 93.1708 8.3488C81.7982 8.3488 73.2171 12.602 67.4274 21.1083C61.6378 29.6146 58.743 40.7989 58.743 54.661C58.743 71.0436 62.4132 83.2255 69.7537 91.2068C77.0941 99.188 86.1922 103.179 97.0478 103.179C100.976 103.179 104.647 102.706 108.058 101.761C111.574 100.816 113.848 99.9231 114.882 99.083C116.019 98.2429 117.725 91.5743 120 79.0774L128.529 79.3924C128.529 87.3736 127.96 95.88 126.823 104.911C123.618 106.697 118.759 108.324 112.246 109.795C105.836 111.265 99.2706 112 92.5504 112C75.6984 112 62.9818 106.959 54.4007 96.8776C45.8196 86.7961 41.5291 73.9841 41.5291 58.4416Z" fill="#9333EA"/>
<path d="M89.517 54.8838C89.7243 66.8852 87.4349 77.6134 82.6488 87.0684C77.0496 98.2224 68.4972 106.058 56.9914 110.574C50.6096 113.001 43.9447 114.274 36.9965 114.394C30.0483 114.514 23.3542 114.104 16.9142 113.162C10.4742 112.22 6.24686 111.345 4.23207 110.538C3.53313 106.653 3.14638 102.553 3.07182 98.2366C2.99907 94.0256 3.0225 89.2864 3.14212 84.019L12.1214 82.6002C14.6484 94.7721 16.8176 101.474 18.6291 102.707C19.5894 103.427 22.077 104.174 26.092 104.947C30.0017 105.722 33.9042 106.076 37.7994 106.009C49.3797 105.809 58.0439 101.394 63.792 92.7648C69.5401 84.1357 72.2941 72.8729 72.0541 58.9765C71.7704 42.5536 67.8221 30.4062 60.2094 22.5344C52.5966 14.6625 43.2632 10.8221 32.2093 11.0131C28.2088 11.0822 24.4798 11.6205 21.022 12.628C17.459 13.6373 15.1584 14.5721 14.1202 15.4325C12.9767 16.2947 11.3552 23.0097 9.25555 35.5775L0.564862 35.4117C0.426645 27.4108 0.858352 18.8735 1.85998 9.79981C5.0926 7.95375 10.0124 6.2365 16.6193 4.64807C23.1209 3.06145 29.7931 2.20903 36.636 2.09082C53.7959 1.79438 66.8321 6.62392 75.7446 16.5794C84.657 26.5349 89.2478 39.303 89.517 54.8838Z" fill="#06B6D4"/>
</svg>
